<svg id="Layer_1" xmlns="http://www.w3.org/2000/svg" viewBox="0 0 80 80"><style>.st0{fill:url(#SVGID_1_)}.st1{fill:url(#SVGID_2_)}.st2{fill:url(#SVGID_3_)}</style><linearGradient id="SVGID_1_" gradientUnits="userSpaceOnUse" x1="15.177" y1="14.303" x2="75.507" y2="74.633"><stop offset="0" stop-color="#a79fc5"/><stop offset="1" stop-color="#240f6e"/></linearGradient><path class="st0" d="M40 1C19 1 1.9 18.1 1.9 39.1S19 77.2 40 77.2c.7 0 1.3-.6 1.3-1.3s-.6-1.3-1.3-1.3c-19.6 0-35.6-16-35.6-35.6S20.4 3.4 40 3.4s35.6 16 35.6 35.6c0 .7.6 1.3 1.3 1.3s1.3-.6 1.3-1.3C78.1 18.1 61 1 40 1z"/><linearGradient id="SVGID_2_" gradientUnits="userSpaceOnUse" x1="15.145" y1="14.336" x2="75.474" y2="74.665"><stop offset="0" stop-color="#a79fc5"/><stop offset="1" stop-color="#240f6e"/></linearGradient><path class="st1" d="M66.5 39.3C66.5 24.8 54.7 13 40.2 13S13.8 24.8 13.8 39.3s11.8 26.4 26.4 26.4 26.3-11.8 26.3-26.4zm-50.2 1.3h8.5c.1 3.8.7 7.4 1.6 10.6h-7c-1.8-3.1-2.9-6.7-3.1-10.6zm3.2-13.1h7c-.9 3.2-1.5 6.8-1.6 10.6h-8.5c.1-3.9 1.2-7.5 3.1-10.6zM64 38.1h-8.5c-.1-3.8-.7-7.4-1.6-10.6h7c1.8 3.1 2.9 6.7 3.1 10.6zm-11.1 0H41.4V27.5h9.8c1 3.1 1.6 6.8 1.7 10.6zM41.4 24.9v-9.4c3.6.7 6.8 4.2 8.9 9.4h-8.9zm-2.5-9.3V25H30c2.1-5.2 5.3-8.7 8.9-9.4zm0 11.9v10.6H27.4c.1-3.8.7-7.5 1.7-10.6h9.8zM27.4 40.6h11.5v10.6h-9.8c-1-3.1-1.6-6.8-1.7-10.6zm11.5 13.1v9.4c-3.6-.7-6.8-4.2-8.9-9.4h8.9zm2.5 9.4v-9.4h8.9c-2.1 5.2-5.3 8.7-8.9 9.4zm0-11.9V40.6h11.5c-.1 3.8-.7 7.5-1.7 10.6h-9.8zm14.1-10.6H64c-.2 3.9-1.3 7.5-3.1 10.6h-7c.9-3.2 1.5-6.8 1.6-10.6zm3.7-15.7h-6.1c-1.2-3.3-2.8-6-4.7-8 4.3 1.6 8 4.4 10.8 8zm-27.2-8c-1.9 2-3.5 4.8-4.7 8h-6.1c2.7-3.6 6.4-6.4 10.8-8zM21.1 53.7h6.1c1.2 3.3 2.8 6 4.7 8-4.3-1.5-8-4.3-10.8-8zm27.2 8.1c1.9-2 3.5-4.8 4.7-8h6.1c-2.7 3.6-6.4 6.4-10.8 8z"/><linearGradient id="SVGID_3_" gradientUnits="userSpaceOnUse" x1="7.344" y1="22.137" x2="67.673" y2="82.466"><stop offset="0" stop-color="#a79fc5"/><stop offset="1" stop-color="#240f6e"/></linearGradient><path class="st2" d="M74.3 72.2h-8l-8-8.3c-.2-.2-.6-.4-.9-.4H55c-.4 0-.8.2-1 .5-.2.3-.3.7-.2 1.1l2 7.1h-4.9L49.1 69c-.2-.4-.6-.6-1.1-.6h-2.7c-.7 0-1.3.6-1.3 1.3v6c0 1.9 1.5 3.4 3.4 3.4h26.9c1.9 0 3.4-1.5 3.4-3.4s-1.6-3.5-3.4-3.5zm0 4.3H47.4c-.5 0-.9-.4-.9-.9v-4.7h.7l1.8 3.2c.2.4.6.6 1.1.6h7.3c.4 0 .8-.2 1-.5.2-.3.3-.7.2-1.1l-2-7.1h.2l8 8.3c.2.2.6.4.9.4h8.5c.5 0 .9.4.9.9s-.4.9-.8.9z"/></svg>