<svg id="Layer_1" xmlns="http://www.w3.org/2000/svg" viewBox="0 0 80 80"><style>.st0{fill:url(#SVGID_1_)}.st1{fill:url(#SVGID_2_)}.st2{fill:url(#SVGID_3_)}.st3{fill:url(#SVGID_4_)}.st4{fill:url(#SVGID_5_)}</style><linearGradient id="SVGID_1_" gradientUnits="userSpaceOnUse" x1="-5.62" y1="22.135" x2="59.251" y2="87.006"><stop offset="0" stop-color="#a79fc5"/><stop offset="1" stop-color="#240f6e"/></linearGradient><path class="st0" d="M13.1 68.7c-.7 0-1.3.6-1.3 1.3 0 .7.6 1.3 1.3 1.3h58.5c.7 0 1.3-.6 1.3-1.3 0-.7-.6-1.3-1.3-1.3H13.1z"/><linearGradient id="SVGID_2_" gradientUnits="userSpaceOnUse" x1="8.258" y1="8.258" x2="73.128" y2="73.128"><stop offset="0" stop-color="#a79fc5"/><stop offset="1" stop-color="#240f6e"/></linearGradient><path class="st1" d="M75 60.8V10.2C75 5.7 71.3 2 66.7 2H13.3C8.7 2 5 5.7 5 10.2v59.5c0 4.5 3.7 8.2 8.2 8.2h60.4c.7 0 1.3-.6 1.3-1.3s-.6-1.3-1.3-1.3H13.3c-3.1 0-5.6-2.5-5.6-5.6v-.4c0-3.2 2.8-4.7 5.6-4.7h57.8c2.1.1 3.9-1.7 3.9-3.8zM57.7 4.7h7.6v15.6l-2.9-2.5c-.5-.4-1.2-.4-1.7 0l-2.9 2.5V4.7zm14.6 56.1c0 .7-.6 1.2-1.2 1.2H13.3c-2.2 0-4.1.6-5.6 1.7V10.2c0-3.1 2.5-5.6 5.6-5.6H55V23c0 .5.3 1 .8 1.2.5.2 1 .1 1.4-.2l4.3-3.6 4.3 3.6c.2.2.6.3.9.3.2 0 .4 0 .6-.1.5-.2.8-.7.8-1.2V4.8c2.5.6 4.4 2.8 4.4 5.4v50.6z"/><linearGradient id="SVGID_3_" gradientUnits="userSpaceOnUse" x1="7.603" y1="8.913" x2="72.473" y2="73.783"><stop offset="0" stop-color="#a79fc5"/><stop offset="1" stop-color="#240f6e"/></linearGradient><path class="st2" d="M50.6 38l-9.1-21.4c-.3-.7-.9-1.1-1.5-1.1s-1.2.4-1.5 1.1L29.4 38 24 50.6c-.3.7 0 1.5.7 1.8.7.3 1.5 0 1.8-.7l5-11.8h17l5 11.8c.2.5.7.8 1.2.8.2 0 .4 0 .5-.1.7-.3 1-1.1.7-1.8L50.6 38zm-17.9-.8L40 19.9l7.3 17.2H32.7z"/><linearGradient id="SVGID_4_" gradientUnits="userSpaceOnUse" x1="-4.348" y1="20.864" x2="60.522" y2="85.734"><stop offset="0" stop-color="#a79fc5"/><stop offset="1" stop-color="#240f6e"/></linearGradient><path class="st3" d="M12.3 18.1c-.7 0-1.3.6-1.3 1.3v36.2c0 .7.6 1.3 1.3 1.3s1.3-.6 1.3-1.3V19.4c.1-.7-.5-1.3-1.3-1.3z"/><linearGradient id="SVGID_5_" gradientUnits="userSpaceOnUse" x1="8.215" y1="8.3" x2="73.086" y2="73.171"><stop offset="0" stop-color="#a79fc5"/><stop offset="1" stop-color="#240f6e"/></linearGradient><path class="st4" d="M12.3 9.8c-.7 0-1.3.6-1.3 1.3v2.4c0 .7.6 1.3 1.3 1.3s1.3-.6 1.3-1.3v-2.4c.1-.7-.5-1.3-1.3-1.3z"/></svg>