<svg id="Layer_1" xmlns="http://www.w3.org/2000/svg" viewBox="0 0 80 80"><style>.st0{fill:url(#SVGID_1_)}.st1{fill:url(#SVGID_2_)}.st2{fill:url(#SVGID_3_)}.st3{fill:url(#SVGID_4_)}.st4{fill:url(#SVGID_5_)}.st5{fill:url(#SVGID_6_)}.st6{fill:url(#SVGID_7_)}.st7{fill:url(#SVGID_8_)}.st8{fill:url(#SVGID_9_)}.st9{fill:url(#SVGID_10_)}</style><linearGradient id="SVGID_1_" gradientUnits="userSpaceOnUse" x1="9.823" y1="4.143" x2="69.274" y2="63.594"><stop offset="0" stop-color="#a79fc5"/><stop offset="1" stop-color="#240f6e"/></linearGradient><path class="st0" d="M68.8 1.9H11.2C5.6 1.9 1 6.5 1 12.1v44.4c0 5.6 4.6 10.2 10.2 10.2h35.3v10c0 .5.3 1 .8 1.2.2.1.4.1.6.1.3 0 .6-.1.9-.3l12.7-11h7.3c5.6 0 10.2-4.6 10.2-10.2V12.1c0-5.6-4.6-10.2-10.2-10.2zm7.5 54.6c0 4.1-3.4 7.5-7.5 7.5H61c-.3 0-.6.1-.9.3l-10.9 9.4v-8.4c0-.7-.6-1.4-1.4-1.4H11.2c-4.1 0-7.5-3.4-7.5-7.5V12.1c0-4.1 3.4-7.5 7.5-7.5h57.6c4.1 0 7.5 3.4 7.5 7.5v44.4z"/><linearGradient id="SVGID_2_" gradientUnits="userSpaceOnUse" x1="4.014" y1="9.953" x2="63.465" y2="69.403"><stop offset="0" stop-color="#a79fc5"/><stop offset="1" stop-color="#240f6e"/></linearGradient><path class="st1" d="M22.2 39.1c6 0 10.9-4.9 10.9-10.9s-4.9-10.9-10.9-10.9c-3.3 0-6.2 1.5-8.2 3.8V10.9c0-.7-.6-1.4-1.4-1.4-.7 0-1.4.6-1.4 1.4v17.2c.1 6.1 5 11 11 11zm0-19.2c4.5 0 8.2 3.7 8.2 8.2 0 4.5-3.7 8.2-8.2 8.2S14 32.7 14 28.1c0-4.5 3.7-8.2 8.2-8.2z"/><linearGradient id="SVGID_3_" gradientUnits="userSpaceOnUse" x1="24.629" y1="-10.662" x2="84.079" y2="48.788"><stop offset="0" stop-color="#a79fc5"/><stop offset="1" stop-color="#240f6e"/></linearGradient><path class="st2" d="M67.7 18.1h-26c-.7 0-1.4.6-1.4 1.4s.6 1.4 1.4 1.4h26c.7 0 1.4-.6 1.4-1.4s-.6-1.4-1.4-1.4z"/><linearGradient id="SVGID_4_" gradientUnits="userSpaceOnUse" x1="22.149" y1="-8.183" x2="81.6" y2="51.268"><stop offset="0" stop-color="#a79fc5"/><stop offset="1" stop-color="#240f6e"/></linearGradient><path class="st3" d="M67.7 26.9H49.4c-.7 0-1.4.6-1.4 1.4s.6 1.4 1.4 1.4h18.3c.7 0 1.4-.6 1.4-1.4s-.6-1.4-1.4-1.4z"/><linearGradient id="SVGID_5_" gradientUnits="userSpaceOnUse" x1="14.623" y1="-.657" x2="74.074" y2="58.794"><stop offset="0" stop-color="#a79fc5"/><stop offset="1" stop-color="#240f6e"/></linearGradient><path class="st4" d="M41.7 29.6h3.6c.7 0 1.4-.6 1.4-1.4s-.6-1.4-1.4-1.4h-3.6c-.7 0-1.4.6-1.4 1.4s.7 1.4 1.4 1.4z"/><linearGradient id="SVGID_6_" gradientUnits="userSpaceOnUse" x1="15.816" y1="-1.849" x2="75.266" y2="57.601"><stop offset="0" stop-color="#a79fc5"/><stop offset="1" stop-color="#240f6e"/></linearGradient><path class="st5" d="M67.7 35.7h-26c-.7 0-1.4.6-1.4 1.4s.6 1.4 1.4 1.4h26c.7 0 1.4-.6 1.4-1.4s-.6-1.4-1.4-1.4z"/><linearGradient id="SVGID_7_" gradientUnits="userSpaceOnUse" x1="6.412" y1="7.555" x2="65.862" y2="67.005"><stop offset="0" stop-color="#a79fc5"/><stop offset="1" stop-color="#240f6e"/></linearGradient><path class="st6" d="M67.7 45.4H23.5c-.7 0-1.4.6-1.4 1.4s.6 1.4 1.4 1.4h44.2c.7 0 1.4-.6 1.4-1.4s-.6-1.4-1.4-1.4z"/><linearGradient id="SVGID_8_" gradientUnits="userSpaceOnUse" x1="-8.723" y1="22.689" x2="50.727" y2="82.14"><stop offset="0" stop-color="#a79fc5"/><stop offset="1" stop-color="#240f6e"/></linearGradient><path class="st7" d="M12.3 48.1h6.1c.7 0 1.4-.6 1.4-1.4s-.6-1.4-1.4-1.4h-6.1c-.7 0-1.4.6-1.4 1.4s.6 1.4 1.4 1.4z"/><linearGradient id="SVGID_9_" gradientUnits="userSpaceOnUse" x1="-1.103" y1="15.07" x2="58.347" y2="74.52"><stop offset="0" stop-color="#a79fc5"/><stop offset="1" stop-color="#240f6e"/></linearGradient><path class="st8" d="M40.8 53.6h-4.1c-.7 0-1.4.6-1.4 1.4 0 .7.6 1.4 1.4 1.4h4.1c.7 0 1.4-.6 1.4-1.4 0-.8-.6-1.4-1.4-1.4z"/><linearGradient id="SVGID_10_" gradientUnits="userSpaceOnUse" x1="-9.279" y1="23.245" x2="50.172" y2="82.696"><stop offset="0" stop-color="#a79fc5"/><stop offset="1" stop-color="#240f6e"/></linearGradient><path class="st9" d="M32.5 53.6H12.3c-.7 0-1.4.6-1.4 1.4 0 .7.6 1.4 1.4 1.4h20.2c.7 0 1.4-.6 1.4-1.4 0-.8-.6-1.4-1.4-1.4z"/></svg>