<?xml version="1.0" encoding="utf-8"?>
<!-- Generator: Adobe Illustrator 22.1.0, SVG Export Plug-In . SVG Version: 6.00 Build 0)  -->
<svg version="1.1" id="Layer_1" xmlns="http://www.w3.org/2000/svg" xmlns:xlink="http://www.w3.org/1999/xlink" x="0px" y="0px"
	 viewBox="0 0 80 80" style="enable-background:new 0 0 80 80;" xml:space="preserve">
<style type="text/css">
	.st0{fill:url(#SVGID_1_);}
	.st1{fill:url(#SVGID_2_);}
	.st2{fill:url(#SVGID_3_);}
	.st3{fill:url(#SVGID_4_);}
	.st4{fill:url(#SVGID_5_);}
</style>
<g>
	<linearGradient id="SVGID_1_" gradientUnits="userSpaceOnUse" x1="-5.62" y1="22.1352" x2="59.2506" y2="87.0058">
		<stop  offset="0" style="stop-color:#A79FC5"/>
		<stop  offset="1" style="stop-color:#240F6E"/>
	</linearGradient>
	<path class="st0" d="M13.1,68.7c-0.7,0-1.3,0.6-1.3,1.3c0,0.7,0.6,1.3,1.3,1.3h58.5c0.7,0,1.3-0.6,1.3-1.3c0-0.7-0.6-1.3-1.3-1.3
		H13.1z"/>
	<linearGradient id="SVGID_2_" gradientUnits="userSpaceOnUse" x1="8.2576" y1="8.2576" x2="73.1282" y2="73.1283">
		<stop  offset="0" style="stop-color:#A79FC5"/>
		<stop  offset="1" style="stop-color:#240F6E"/>
	</linearGradient>
	<path class="st1" d="M75,60.8V10.2C75,5.7,71.3,2,66.7,2H13.3C8.7,2,5,5.7,5,10.2v59.1c0,0.1,0,0.1,0,0.2c0,0.1,0,0.1,0,0.2
		c0,4.5,3.7,8.2,8.2,8.2h60.4c0.7,0,1.3-0.6,1.3-1.3s-0.6-1.3-1.3-1.3H13.3c-3.1,0-5.6-2.5-5.6-5.6c0-0.1,0-0.1,0-0.2
		c0-0.1,0-0.1,0-0.2c0-3.2,2.8-4.7,5.6-4.7h57.8C73.2,64.7,75,62.9,75,60.8z M57.7,4.7h7.6v15.6l-2.9-2.5c-0.5-0.4-1.2-0.4-1.7,0
		l-2.9,2.5V4.7z M72.3,60.8c0,0.7-0.6,1.2-1.2,1.2H13.3c-2.2,0-4.1,0.6-5.6,1.7V10.2c0-3.1,2.5-5.6,5.6-5.6H55v18.4
		c0,0.5,0.3,1,0.8,1.2c0.5,0.2,1,0.1,1.4-0.2l4.3-3.6l4.3,3.6c0.2,0.2,0.6,0.3,0.9,0.3c0.2,0,0.4,0,0.6-0.1c0.5-0.2,0.8-0.7,0.8-1.2
		V4.8c2.5,0.6,4.4,2.8,4.4,5.4V60.8z"/>
	<linearGradient id="SVGID_3_" gradientUnits="userSpaceOnUse" x1="7.6026" y1="8.9126" x2="72.4732" y2="73.7832">
		<stop  offset="0" style="stop-color:#A79FC5"/>
		<stop  offset="1" style="stop-color:#240F6E"/>
	</linearGradient>
	<path class="st2" d="M50.6,38C50.6,38,50.6,38,50.6,38l-9.1-21.4c-0.3-0.7-0.9-1.1-1.5-1.1s-1.2,0.4-1.5,1.1L29.4,38c0,0,0,0,0,0
		L24,50.6c-0.3,0.7,0,1.5,0.7,1.8c0.7,0.3,1.5,0,1.8-0.7l5-11.8h17l5,11.8c0.2,0.5,0.7,0.8,1.2,0.8c0.2,0,0.4,0,0.5-0.1
		c0.7-0.3,1-1.1,0.7-1.8L50.6,38z M32.7,37.2L40,19.9l7.3,17.2H32.7z"/>
	<linearGradient id="SVGID_4_" gradientUnits="userSpaceOnUse" x1="-4.3484" y1="20.8636" x2="60.5222" y2="85.7342">
		<stop  offset="0" style="stop-color:#A79FC5"/>
		<stop  offset="1" style="stop-color:#240F6E"/>
	</linearGradient>
	<path class="st3" d="M12.3,18.1c-0.7,0-1.3,0.6-1.3,1.3v36.2c0,0.7,0.6,1.3,1.3,1.3s1.3-0.6,1.3-1.3V19.4
		C13.7,18.7,13.1,18.1,12.3,18.1z"/>
	<linearGradient id="SVGID_5_" gradientUnits="userSpaceOnUse" x1="8.2149" y1="8.3003" x2="73.0856" y2="73.1709">
		<stop  offset="0" style="stop-color:#A79FC5"/>
		<stop  offset="1" style="stop-color:#240F6E"/>
	</linearGradient>
	<path class="st4" d="M12.3,9.8c-0.7,0-1.3,0.6-1.3,1.3v2.4c0,0.7,0.6,1.3,1.3,1.3s1.3-0.6,1.3-1.3v-2.4
		C13.7,10.4,13.1,9.8,12.3,9.8z"/>
</g>
</svg>
