<?xml version="1.0" encoding="utf-8"?>
<!-- Generator: Adobe Illustrator 22.1.0, SVG Export Plug-In . SVG Version: 6.00 Build 0)  -->
<svg version="1.1" id="Layer_1" xmlns="http://www.w3.org/2000/svg" xmlns:xlink="http://www.w3.org/1999/xlink" x="0px" y="0px"
	 viewBox="0 0 80 80" style="enable-background:new 0 0 80 80;" xml:space="preserve">
<style type="text/css">
	.st0{fill:url(#SVGID_1_);}
	.st1{fill:url(#SVGID_2_);}
	.st2{fill:url(#SVGID_3_);}
	.st3{fill:url(#SVGID_4_);}
	.st4{fill:url(#SVGID_5_);}
	.st5{fill:url(#SVGID_6_);}
	.st6{fill:url(#SVGID_7_);}
	.st7{fill:url(#SVGID_8_);}
	.st8{fill:url(#SVGID_9_);}
	.st9{fill:url(#SVGID_10_);}
</style>
<g>
	<linearGradient id="SVGID_1_" gradientUnits="userSpaceOnUse" x1="9.8235" y1="4.1429" x2="69.2741" y2="63.5936">
		<stop  offset="0" style="stop-color:#A79FC5"/>
		<stop  offset="1" style="stop-color:#240F6E"/>
	</linearGradient>
	<path class="st0" d="M68.8,1.9H11.2C5.6,1.9,1,6.5,1,12.1v44.4c0,5.6,4.6,10.2,10.2,10.2h35.3v10c0,0.5,0.3,1,0.8,1.2
		c0.2,0.1,0.4,0.1,0.6,0.1c0.3,0,0.6-0.1,0.9-0.3l12.7-11h7.3c5.6,0,10.2-4.6,10.2-10.2V12.1C79,6.5,74.4,1.9,68.8,1.9z M76.3,56.5
		c0,4.1-3.4,7.5-7.5,7.5H61c-0.3,0-0.6,0.1-0.9,0.3l-10.9,9.4v-8.4c0-0.7-0.6-1.4-1.4-1.4H11.2c-4.1,0-7.5-3.4-7.5-7.5V12.1
		c0-4.1,3.4-7.5,7.5-7.5h57.6c4.1,0,7.5,3.4,7.5,7.5V56.5z"/>
	<linearGradient id="SVGID_2_" gradientUnits="userSpaceOnUse" x1="4.0139" y1="9.9525" x2="63.4645" y2="69.4031">
		<stop  offset="0" style="stop-color:#A79FC5"/>
		<stop  offset="1" style="stop-color:#240F6E"/>
	</linearGradient>
	<path class="st1" d="M22.2,39.1c6,0,10.9-4.9,10.9-10.9c0-6-4.9-10.9-10.9-10.9c-3.3,0-6.2,1.5-8.2,3.8V10.9c0-0.7-0.6-1.4-1.4-1.4
		c-0.7,0-1.4,0.6-1.4,1.4v17.2C11.3,34.2,16.2,39.1,22.2,39.1z M22.2,19.9c4.5,0,8.2,3.7,8.2,8.2c0,4.5-3.7,8.2-8.2,8.2
		S14,32.7,14,28.1C14,23.6,17.7,19.9,22.2,19.9z"/>
	<linearGradient id="SVGID_3_" gradientUnits="userSpaceOnUse" x1="24.6287" y1="-10.6623" x2="84.0793" y2="48.7883">
		<stop  offset="0" style="stop-color:#A79FC5"/>
		<stop  offset="1" style="stop-color:#240F6E"/>
	</linearGradient>
	<path class="st2" d="M67.7,18.1h-26c-0.7,0-1.4,0.6-1.4,1.4s0.6,1.4,1.4,1.4h26c0.7,0,1.4-0.6,1.4-1.4S68.5,18.1,67.7,18.1z"/>
	<linearGradient id="SVGID_4_" gradientUnits="userSpaceOnUse" x1="22.149" y1="-8.1826" x2="81.5996" y2="51.2681">
		<stop  offset="0" style="stop-color:#A79FC5"/>
		<stop  offset="1" style="stop-color:#240F6E"/>
	</linearGradient>
	<path class="st3" d="M67.7,26.9H49.4c-0.7,0-1.4,0.6-1.4,1.4s0.6,1.4,1.4,1.4h18.3c0.7,0,1.4-0.6,1.4-1.4S68.5,26.9,67.7,26.9z"/>
	<linearGradient id="SVGID_5_" gradientUnits="userSpaceOnUse" x1="14.6233" y1="-0.6569" x2="74.0739" y2="58.7937">
		<stop  offset="0" style="stop-color:#A79FC5"/>
		<stop  offset="1" style="stop-color:#240F6E"/>
	</linearGradient>
	<path class="st4" d="M41.7,29.6h3.6c0.7,0,1.4-0.6,1.4-1.4s-0.6-1.4-1.4-1.4h-3.6c-0.7,0-1.4,0.6-1.4,1.4S41,29.6,41.7,29.6z"/>
	<linearGradient id="SVGID_6_" gradientUnits="userSpaceOnUse" x1="15.8158" y1="-1.8494" x2="75.2664" y2="57.6012">
		<stop  offset="0" style="stop-color:#A79FC5"/>
		<stop  offset="1" style="stop-color:#240F6E"/>
	</linearGradient>
	<path class="st5" d="M67.7,35.7h-26c-0.7,0-1.4,0.6-1.4,1.4s0.6,1.4,1.4,1.4h26c0.7,0,1.4-0.6,1.4-1.4S68.5,35.7,67.7,35.7z"/>
	<linearGradient id="SVGID_7_" gradientUnits="userSpaceOnUse" x1="6.4117" y1="7.5547" x2="65.8623" y2="67.0053">
		<stop  offset="0" style="stop-color:#A79FC5"/>
		<stop  offset="1" style="stop-color:#240F6E"/>
	</linearGradient>
	<path class="st6" d="M67.7,45.4H23.5c-0.7,0-1.4,0.6-1.4,1.4s0.6,1.4,1.4,1.4h44.2c0.7,0,1.4-0.6,1.4-1.4S68.5,45.4,67.7,45.4z"/>
	<linearGradient id="SVGID_8_" gradientUnits="userSpaceOnUse" x1="-8.7231" y1="22.6895" x2="50.7275" y2="82.1402">
		<stop  offset="0" style="stop-color:#A79FC5"/>
		<stop  offset="1" style="stop-color:#240F6E"/>
	</linearGradient>
	<path class="st7" d="M12.3,48.1h6.1c0.7,0,1.4-0.6,1.4-1.4s-0.6-1.4-1.4-1.4h-6.1c-0.7,0-1.4,0.6-1.4,1.4S11.5,48.1,12.3,48.1z"/>
	<linearGradient id="SVGID_9_" gradientUnits="userSpaceOnUse" x1="-1.1034" y1="15.0698" x2="58.3472" y2="74.5204">
		<stop  offset="0" style="stop-color:#A79FC5"/>
		<stop  offset="1" style="stop-color:#240F6E"/>
	</linearGradient>
	<path class="st8" d="M40.8,53.6h-4.1c-0.7,0-1.4,0.6-1.4,1.4c0,0.7,0.6,1.4,1.4,1.4h4.1c0.7,0,1.4-0.6,1.4-1.4
		C42.2,54.2,41.6,53.6,40.8,53.6z"/>
	<linearGradient id="SVGID_10_" gradientUnits="userSpaceOnUse" x1="-9.2789" y1="23.2453" x2="50.1718" y2="82.6959">
		<stop  offset="0" style="stop-color:#A79FC5"/>
		<stop  offset="1" style="stop-color:#240F6E"/>
	</linearGradient>
	<path class="st9" d="M32.5,53.6H12.3c-0.7,0-1.4,0.6-1.4,1.4c0,0.7,0.6,1.4,1.4,1.4h20.2c0.7,0,1.4-0.6,1.4-1.4
		C33.9,54.2,33.3,53.6,32.5,53.6z"/>
</g>
</svg>
