<?xml version="1.0" encoding="utf-8"?>
<!-- Generator: Adobe Illustrator 22.1.0, SVG Export Plug-In . SVG Version: 6.00 Build 0)  -->
<svg version="1.1" id="Layer_1" xmlns="http://www.w3.org/2000/svg" xmlns:xlink="http://www.w3.org/1999/xlink" x="0px" y="0px"
	 viewBox="0 0 80 80" style="enable-background:new 0 0 80 80;" xml:space="preserve">
<style type="text/css">
	.st0{fill:url(#SVGID_1_);}
	.st1{fill:url(#SVGID_2_);}
	.st2{fill:url(#SVGID_3_);}
</style>
<g>
	<linearGradient id="SVGID_1_" gradientUnits="userSpaceOnUse" x1="15.1773" y1="14.3034" x2="75.5066" y2="74.6326">
		<stop  offset="0" style="stop-color:#A79FC5"/>
		<stop  offset="1" style="stop-color:#240F6E"/>
	</linearGradient>
	<path class="st0" d="M40,1C19,1,1.9,18.1,1.9,39.1c0,21,17.1,38.1,38.1,38.1c0.7,0,1.3-0.6,1.3-1.3s-0.6-1.3-1.3-1.3
		c-19.6,0-35.6-16-35.6-35.6c0-19.6,16-35.6,35.6-35.6s35.6,16,35.6,35.6c0,0.7,0.6,1.3,1.3,1.3s1.3-0.6,1.3-1.3
		C78.1,18.1,61,1,40,1z"/>
	<linearGradient id="SVGID_2_" gradientUnits="userSpaceOnUse" x1="15.1447" y1="14.336" x2="75.4739" y2="74.6653">
		<stop  offset="0" style="stop-color:#A79FC5"/>
		<stop  offset="1" style="stop-color:#240F6E"/>
	</linearGradient>
	<path class="st1" d="M66.5,39.3C66.5,24.8,54.7,13,40.2,13S13.8,24.8,13.8,39.3s11.8,26.4,26.4,26.4S66.5,53.9,66.5,39.3z
		 M16.3,40.6h8.5c0.1,3.8,0.7,7.4,1.6,10.6h-7C17.6,48.1,16.5,44.5,16.3,40.6z M19.5,27.5h7c-0.9,3.2-1.5,6.8-1.6,10.6h-8.5
		C16.5,34.2,17.6,30.6,19.5,27.5z M64,38.1h-8.5c-0.1-3.8-0.7-7.4-1.6-10.6h7C62.7,30.6,63.8,34.2,64,38.1z M52.9,38.1H41.4V27.5
		h9.8C52.2,30.6,52.8,34.3,52.9,38.1z M41.4,24.9v-9.4c3.6,0.7,6.8,4.2,8.9,9.4H41.4z M38.9,15.6v9.4H30
		C32.1,19.8,35.3,16.3,38.9,15.6z M38.9,27.5v10.6H27.4c0.1-3.8,0.7-7.5,1.7-10.6H38.9z M27.4,40.6h11.5v10.6h-9.8
		C28.1,48.1,27.5,44.4,27.4,40.6z M38.9,53.7v9.4c-3.6-0.7-6.8-4.2-8.9-9.4H38.9z M41.4,63.1v-9.4h8.9C48.2,58.9,45,62.4,41.4,63.1z
		 M41.4,51.2V40.6h11.5c-0.1,3.8-0.7,7.5-1.7,10.6H41.4z M55.5,40.6H64c-0.2,3.9-1.3,7.5-3.1,10.6h-7C54.8,48,55.4,44.4,55.5,40.6z
		 M59.2,24.9h-6.1c-1.2-3.3-2.8-6-4.7-8C52.7,18.5,56.4,21.3,59.2,24.9z M32,16.9c-1.9,2-3.5,4.8-4.7,8h-6.1
		C23.9,21.3,27.6,18.5,32,16.9z M21.1,53.7h6.1c1.2,3.3,2.8,6,4.7,8C27.6,60.2,23.9,57.4,21.1,53.7z M48.3,61.8c1.9-2,3.5-4.8,4.7-8
		h6.1C56.4,57.4,52.7,60.2,48.3,61.8z"/>
	<linearGradient id="SVGID_3_" gradientUnits="userSpaceOnUse" x1="7.3437" y1="22.137" x2="67.673" y2="82.4662">
		<stop  offset="0" style="stop-color:#A79FC5"/>
		<stop  offset="1" style="stop-color:#240F6E"/>
	</linearGradient>
	<path class="st2" d="M74.3,72.2h-8l-8-8.3c-0.2-0.2-0.6-0.4-0.9-0.4H55c-0.4,0-0.8,0.2-1,0.5c-0.2,0.3-0.3,0.7-0.2,1.1l2,7.1h-4.9
		L49.1,69c-0.2-0.4-0.6-0.6-1.1-0.6h-2.7c-0.7,0-1.3,0.6-1.3,1.3v6c0,1.9,1.5,3.4,3.4,3.4h26.9c1.9,0,3.4-1.5,3.4-3.4
		C77.7,73.8,76.1,72.2,74.3,72.2z M74.3,76.5H47.4c-0.5,0-0.9-0.4-0.9-0.9v-4.7h0.7l1.8,3.2c0.2,0.4,0.6,0.6,1.1,0.6h7.3
		c0.4,0,0.8-0.2,1-0.5c0.2-0.3,0.3-0.7,0.2-1.1l-2-7.1h0.2l8,8.3c0.2,0.2,0.6,0.4,0.9,0.4h8.5c0.5,0,0.9,0.4,0.9,0.9
		C75.1,76.1,74.7,76.5,74.3,76.5z"/>
</g>
</svg>
